<svg id="visual" viewBox="0 0 1400 1000" width="1400" height="1000" xmlns="http://www.w3.org/2000/svg" xmlns:xlink="http://www.w3.org/1999/xlink" version="1.1"><rect x="0" y="0" width="1400" height="1000" fill="#001122"></rect><g fill="none" stroke="#c90c0c" stroke-width="2"><circle r="127" cx="204" cy="466"></circle><circle r="23" cx="70" cy="783"></circle><circle r="85" cx="2" cy="115"></circle><circle r="110" cx="643" cy="395"></circle><circle r="95" cx="556" cy="938"></circle><circle r="114" cx="1133" cy="524"></circle><circle r="52" cx="877" cy="898"></circle><circle r="46" cx="323" cy="128"></circle><circle r="111" cx="1394" cy="13"></circle><circle r="26" cx="491" cy="683"></circle><circle r="122" cx="1202" cy="255"></circle><circle r="30" cx="894" cy="290"></circle><circle r="35" cx="902" cy="18"></circle><circle r="60" cx="1228" cy="899"></circle><circle r="41" cx="277" cy="995"></circle><circle r="68" cx="1380" cy="630"></circle><circle r="23" cx="872" cy="614"></circle><circle r="31" cx="604" cy="87"></circle></g></svg>